<svg width="150" height="10" viewBox="0 0 150 10" fill="#fff" xmlns="http://www.w3.org/2000/svg"><path d="M0.5 0.182251H15.065V2.50597H3.64384V3.79692H12.2249C14.5182 3.79692 15.8851 4.90561 15.8851 6.77369C15.8851 8.64178 14.5334 9.75048 12.2249 9.75048H0.5V0.182251ZM3.64384 6.05988V7.51789H11.6477C12.3464 7.51789 12.6653 7.30526 12.6653 6.78888C12.6653 6.28769 12.3464 6.05988 11.6477 6.05988H3.64384Z"></path> <path d="M17.7227 0.182251H28.3388C31.2701 0.182251 33.0166 1.54914 33.0166 3.85767C33.0166 6.16619 31.2852 7.53308 28.3388 7.53308H21.0032V9.76567H17.7227V0.182251ZM21.0184 2.65784V5.08787H27.8376C29.1286 5.08787 29.6905 4.72336 29.6905 3.88804C29.6905 3.02234 29.1286 2.65784 27.8376 2.65784H21.0184Z"></path> <path d="M39.563 6.95595L32.7285 0.182251H36.6925L41.507 4.89043L45.7899 0.182251H49.6628L40.945 9.76567H36.9811L39.563 6.95595Z"></path> <path d="M57.6964 0C62.4045 0 65.1991 1.12389 65.9129 3.26535L62.3742 3.96398C61.9641 2.93122 60.5213 2.4604 57.7116 2.4604C53.8691 2.4604 52.1681 3.21978 52.1681 4.98155C52.1681 6.72814 53.8539 7.50271 57.7116 7.50271C60.5972 7.50271 62.04 7.0167 62.3894 5.93837L65.8825 6.60664C65.1231 8.83922 62.4197 9.96311 57.7116 9.96311C51.9706 9.96311 48.8116 8.18615 48.8116 4.98155C48.7964 1.76177 51.9554 0 57.6964 0Z"></path> <path d="M67.417 0.182251H70.6975V3.64504H80.7214V0.182251H84.0171V9.76567H80.7214V6.12063H70.6975V9.76567H67.417V0.182251Z"></path> <path d="M86.4316 0.182251H89.7122V6.71295L99.4019 0.182251H102.698V9.76567H99.4019V3.23497L89.7122 9.76567H86.4316V0.182251Z"></path> <path d="M105.006 0.182251H108.287V4.17661L116.124 0.182251H121.47L112.418 4.69299L121.698 9.76567H115.972L108.287 5.55868V9.76567H105.006V0.182251Z"></path> <path d="M130.947 2.55153L133.499 5.83206H128.396L130.947 2.55153ZM129.307 0.182251L121.531 9.76567H125.343L126.649 8.09502H135.26L136.567 9.76567H140.5L132.724 0.182251H129.307Z"></path></svg>